<svg width="14" height="14" viewBox="0 0 14 14" fill="none" xmlns="http://www.w3.org/2000/svg">
<path d="M4.29032 0C3.91619 0 3.6129 0.348223 3.6129 0.777778C3.6129 1.20733 3.91619 1.55556 4.29032 1.55556H9.70968C10.0838 1.55556 10.3871 1.20733 10.3871 0.777778C10.3871 0.348223 10.0838 0 9.70968 0H4.29032Z" fill="black"/>
<path d="M0.677419 6.22222C0.303291 6.22222 0 6.57044 0 7C0 7.42955 0.303291 7.77778 0.677419 7.77778H13.3226C13.6967 7.77778 14 7.42955 14 7C14 6.57044 13.6967 6.22222 13.3226 6.22222H0.677419Z" fill="black"/>
<path d="M4.29032 12.4444C3.91619 12.4444 3.6129 12.7927 3.6129 13.2222C3.6129 13.6518 3.91619 14 4.29032 14H9.70968C10.0838 14 10.3871 13.6518 10.3871 13.2222C10.3871 12.7927 10.0838 12.4444 9.70968 12.4444H4.29032Z" fill="black"/>
</svg>
