<svg width="189" height="67" viewBox="0 0 189 67" fill="none" xmlns="http://www.w3.org/2000/svg">
<g filter="url(#filter0_d_16_773)">
<path d="M77.4847 41.0327C77.9986 41.0327 78.4883 40.9939 78.9538 40.9164C79.4192 40.8291 79.841 40.7176 80.2192 40.5818C80.5974 40.4364 80.9222 40.2667 81.1938 40.0727C81.4653 39.8691 81.6737 39.6509 81.8192 39.4182C81.8677 39.3115 81.9065 39.1903 81.9356 39.0545C81.9647 38.9188 81.9792 38.783 81.9792 38.6473C81.9792 38.2594 81.858 37.8036 81.6156 37.28C81.3828 36.7467 81.0774 36.2085 80.6992 35.6655C79.9428 34.6667 79.2641 33.7648 78.6628 32.96C78.0713 32.1552 77.5574 31.4667 77.121 30.8945C76.6168 30.2255 76.1659 29.6339 75.7683 29.12L76.3647 26.8945L89.9065 20.6836L91.2156 23.5927L79.5356 28.9455C79.8362 29.3721 80.1271 29.7891 80.4083 30.1964C80.6895 30.5939 81.0047 31.0352 81.3538 31.52C81.7125 32.0048 82.1295 32.5673 82.6047 33.2073C83.0798 33.8376 83.6616 34.5988 84.3501 35.4909C84.8931 36.2279 85.3731 36.8776 85.7901 37.44C86.2071 38.0024 86.5901 38.4921 86.9392 38.9091C87.298 39.3164 87.6374 39.6558 87.9574 39.9273C88.2774 40.1988 88.6022 40.417 88.9319 40.5818C89.2713 40.7467 89.635 40.863 90.0228 40.9309C90.4107 40.9988 90.8519 41.0327 91.3465 41.0327H91.6956V44.2182H91.3465C90.4931 44.2182 89.7368 44.1406 89.0774 43.9855C88.4277 43.8303 87.8362 43.6073 87.3028 43.3164C86.7792 43.0255 86.2944 42.6764 85.8483 42.2691C85.4022 41.8521 84.961 41.3915 84.5247 40.8873C84.2434 41.4109 83.841 41.9006 83.3174 42.3564C82.7938 42.8121 82.2071 43.1806 81.5574 43.4618C80.9756 43.7139 80.3259 43.903 79.6083 44.0291C78.8907 44.1552 78.1489 44.2182 77.3828 44.2182H65.9792C65.2713 44.2182 64.6022 44.097 63.9719 43.8545C63.3416 43.6121 62.7792 43.263 62.2847 42.8073C62.0907 42.623 61.8871 42.4 61.6737 42.1382C61.4701 41.8764 61.2859 41.5709 61.121 41.2218C60.9562 40.863 60.8204 40.4606 60.7138 40.0145C60.6071 39.5588 60.5537 39.0497 60.5537 38.4873C60.5537 37.9927 60.6022 37.4545 60.6992 36.8727C60.8059 36.2812 60.9174 35.7236 61.0338 35.2C61.1598 34.6667 61.281 34.2109 61.3974 33.8327C61.5138 33.4448 61.5865 33.2073 61.6156 33.12L63.1283 33.6L64.6556 34.08C64.5877 34.2836 64.5004 34.5697 64.3938 34.9382C64.2968 35.297 64.1998 35.6897 64.1028 36.1164C64.0059 36.5333 63.9186 36.9552 63.841 37.3818C63.7731 37.8085 63.7392 38.177 63.7392 38.4873C63.7392 39.0788 63.8313 39.5442 64.0156 39.8836C64.2095 40.223 64.4277 40.48 64.6701 40.6545C64.9222 40.8194 65.1744 40.9261 65.4265 40.9745C65.6786 41.0133 65.8725 41.0327 66.0083 41.0327H77.4847ZM107.096 41.0327V44.2182H104.769C103.916 44.2182 103.15 44.1018 102.471 43.8691C101.792 43.6267 101.235 43.2727 100.798 42.8073C100.275 43.263 99.6347 43.6121 98.8783 43.8545C98.1316 44.097 97.2831 44.2182 96.3328 44.2182H91.0819V41.0327H96.3328C96.9728 41.0327 97.4819 40.9697 97.8601 40.8436C98.248 40.7176 98.5389 40.5624 98.7328 40.3782C98.9268 40.1842 99.0528 39.9758 99.111 39.7527C99.1692 39.52 99.1983 39.297 99.1983 39.0836V34.1527H102.369V38.9818C102.369 39.3115 102.418 39.5927 102.515 39.8255C102.621 40.0485 102.752 40.2376 102.907 40.3927C103.063 40.5382 103.232 40.6545 103.416 40.7418C103.601 40.8291 103.78 40.897 103.955 40.9455C104.139 40.9842 104.304 41.0085 104.449 41.0182C104.595 41.0279 104.701 41.0327 104.769 41.0327H107.096ZM100.74 52L98.4419 49.6727L100.711 47.3164L103.067 49.6727L100.74 52ZM95.1983 51.9709L92.9001 49.6436L95.1692 47.2873L97.5256 49.6436L95.1983 51.9709ZM117.385 30.1818L115.087 27.8545L117.356 25.4982L119.712 27.8545L117.385 30.1818ZM111.538 30.1527L109.239 27.8255L111.494 25.4691L113.85 27.8255L111.538 30.1527ZM122.534 41.0327V44.2182H120.207C119.353 44.2182 118.587 44.1018 117.909 43.8691C117.23 43.6267 116.672 43.2727 116.236 42.8073C115.712 43.263 115.072 43.6121 114.316 43.8545C113.569 44.097 112.721 44.2182 111.77 44.2182H106.519V41.0327H111.77C112.41 41.0327 112.919 40.9697 113.298 40.8436C113.685 40.7176 113.976 40.5624 114.17 40.3782C114.364 40.1842 114.49 39.9758 114.549 39.7527C114.607 39.52 114.636 39.297 114.636 39.0836V34.1527H117.807V38.9818C117.807 39.3115 117.855 39.5927 117.952 39.8255C118.059 40.0485 118.19 40.2376 118.345 40.3927C118.5 40.5382 118.67 40.6545 118.854 40.7418C119.038 40.8291 119.218 40.897 119.392 40.9455C119.576 40.9842 119.741 41.0085 119.887 41.0182C120.032 41.0279 120.139 41.0327 120.207 41.0327H122.534ZM133.142 44.1891C132.241 44.1891 131.436 44.0679 130.728 43.8255C130.03 43.5733 129.428 43.2048 128.924 42.72C128.401 43.2242 127.804 43.6024 127.135 43.8545C126.476 44.097 125.811 44.2182 125.142 44.2182H121.928V41.0327H125.142C125.268 41.0327 125.453 41.0133 125.695 40.9745C125.947 40.9261 126.195 40.8194 126.437 40.6545C126.679 40.4897 126.888 40.2473 127.062 39.9273C127.247 39.5976 127.339 39.1467 127.339 38.5745V34.1673H130.524V38.5164C130.524 39.3891 130.728 40.0242 131.135 40.4218C131.542 40.8194 132.211 41.0182 133.142 41.0182C133.268 41.0182 133.453 40.9939 133.695 40.9455C133.947 40.897 134.195 40.7903 134.437 40.6255C134.679 40.4509 134.888 40.1988 135.062 39.8691C135.247 39.5394 135.339 39.0885 135.339 38.5164V34.1673H138.51V38.5164C138.51 39.3891 138.718 40.0291 139.135 40.4364C139.552 40.8436 140.231 41.0473 141.171 41.0473C141.317 41.0473 141.511 41.0182 141.753 40.96C141.996 40.9018 142.233 40.7855 142.466 40.6109C142.699 40.4364 142.902 40.1842 143.077 39.8545C143.251 39.5152 143.339 39.0691 143.339 38.5164C143.339 38.303 143.319 38.0412 143.281 37.7309C143.242 37.4109 143.193 37.0715 143.135 36.7127C143.077 36.3539 143.009 35.9903 142.931 35.6218C142.864 35.2436 142.791 34.8897 142.713 34.56C142.645 34.2206 142.578 33.92 142.51 33.6582C142.442 33.3964 142.388 33.1976 142.35 33.0618L145.361 32.1018C145.38 32.16 145.419 32.3152 145.477 32.5673C145.545 32.8194 145.618 33.1297 145.695 33.4982C145.782 33.8667 145.87 34.2739 145.957 34.72C146.054 35.1661 146.141 35.617 146.219 36.0727C146.296 36.5285 146.359 36.9697 146.408 37.3964C146.456 37.823 146.481 38.1964 146.481 38.5164C146.481 39.4764 146.321 40.3103 146.001 41.0182C145.69 41.7261 145.283 42.3176 144.779 42.7927C144.284 43.2679 143.717 43.6218 143.077 43.8545C142.447 44.0873 141.811 44.2085 141.171 44.2182C140.27 44.2182 139.46 44.0873 138.742 43.8255C138.025 43.5636 137.409 43.1903 136.895 42.7055C136.371 43.2097 135.78 43.583 135.121 43.8255C134.471 44.0679 133.811 44.1891 133.142 44.1891ZM149.402 44.1891V41.0036H155.424C156.597 41.0036 157.542 40.9067 158.26 40.7127C158.977 40.5091 159.53 40.1794 159.918 39.7236C160.316 39.2679 160.577 38.6715 160.704 37.9345C160.839 37.1879 160.907 36.2667 160.907 35.1709V23.2582H164.078V38.5018C164.078 38.8703 164.136 39.2097 164.253 39.52C164.369 39.8303 164.529 40.097 164.733 40.32C164.946 40.543 165.198 40.7176 165.489 40.8436C165.79 40.9697 166.114 41.0327 166.464 41.0327H167.409V44.2182H166.464C165.523 44.2182 164.689 44.0194 163.962 43.6218C163.244 43.2145 162.624 42.6764 162.1 42.0073C161.402 42.7152 160.51 43.2582 159.424 43.6364C158.337 44.0048 157.004 44.1891 155.424 44.1891H149.402ZM151.176 39.1709L150.144 23.7964L153.3 23.4327L154.347 39.1709H151.176ZM177.519 32.1018C177.538 32.16 177.577 32.32 177.635 32.5818C177.693 32.8339 177.761 33.1491 177.839 33.5273C177.926 33.9055 178.008 34.3224 178.086 34.7782C178.173 35.2339 178.251 35.6945 178.319 36.16C178.396 36.6158 178.459 37.0618 178.508 37.4982C178.556 37.9248 178.58 38.2982 178.58 38.6182C178.58 39.5782 178.42 40.4121 178.1 41.12C177.78 41.8279 177.363 42.4097 176.849 42.8655C176.345 43.3212 175.773 43.6606 175.133 43.8836C174.493 44.1067 173.853 44.2182 173.213 44.2182H166.74V41.0327H173.315C173.441 41.0327 173.625 41.0133 173.868 40.9745C174.12 40.9358 174.367 40.8388 174.609 40.6836C174.852 40.5188 175.06 40.2764 175.235 39.9564C175.419 39.6364 175.511 39.1903 175.511 38.6182C175.511 38.4048 175.492 38.1382 175.453 37.8182C175.414 37.4982 175.366 37.1539 175.308 36.7855C175.249 36.417 175.182 36.0388 175.104 35.6509C175.026 35.263 174.949 34.8994 174.871 34.56C174.803 34.2206 174.735 33.9152 174.668 33.6436C174.6 33.3721 174.546 33.1636 174.508 33.0182L177.519 32.1018ZM167.919 49.0036L170.246 46.6764L172.573 49.0327L170.246 51.36L167.919 49.0036ZM173.984 49.0327L176.34 46.7055L178.668 49.0618L176.34 51.3891L173.984 49.0327ZM171.089 53.1055L173.242 50.9527L175.424 53.1345L173.271 55.2873L171.089 53.1055Z" fill="black"/>
</g>
<g filter="url(#filter1_d_16_773)">
<path d="M55.8883 25.0682C55.5944 25.0682 55.3505 25.0348 55.1565 24.9682C54.9656 24.8985 54.8111 24.7788 54.6929 24.6091C54.608 24.7152 54.5171 24.8 54.4202 24.8636C54.3232 24.9273 54.2262 24.9758 54.1292 25.0091C54.0353 25.0455 53.9444 25.0682 53.8565 25.0773C53.7717 25.0894 53.6974 25.0955 53.6338 25.0955C53.4641 25.0955 53.2626 25.0515 53.0292 24.9636C52.7959 24.8758 52.5459 24.7682 52.2792 24.6409C52.0126 24.5106 51.7383 24.3712 51.4565 24.2227C51.1747 24.0712 50.9005 23.9318 50.6338 23.8045L50.6429 28H49.6838L49.6792 23.3455L50.6747 22.7409L51.4656 23.1318C51.4989 22.9561 51.5383 22.7818 51.5838 22.6091C51.6292 22.4333 51.6853 22.2667 51.752 22.1091C51.8186 21.9515 51.8974 21.8045 51.9883 21.6682C52.0792 21.5318 52.1853 21.4136 52.3065 21.3136C52.4308 21.2136 52.5747 21.1364 52.7383 21.0818C52.8898 21.0333 53.0611 21.0091 53.252 21.0091H53.2883C53.5823 21.0091 53.8414 21.0667 54.0656 21.1818C54.2929 21.2939 54.4823 21.447 54.6338 21.6409C54.7883 21.8318 54.905 22.053 54.9838 22.3045C55.0626 22.5561 55.102 22.8197 55.102 23.0955C55.102 23.147 55.1005 23.197 55.0974 23.2455C55.0974 23.2939 55.0959 23.3409 55.0929 23.3864C55.0959 23.5288 55.1308 23.6455 55.1974 23.7364C55.2641 23.8242 55.3398 23.8939 55.4247 23.9455C55.5126 23.9939 55.6005 24.0273 55.6883 24.0455C55.7762 24.0636 55.8429 24.0727 55.8883 24.0727H56.0792V25.0682H55.8883ZM53.6338 24.1045C53.6641 24.1045 53.7111 24.1015 53.7747 24.0955C53.8383 24.0864 53.902 24.0515 53.9656 23.9909C54.0323 23.9303 54.0898 23.8318 54.1383 23.6955C54.1868 23.5561 54.2111 23.3561 54.2111 23.0955C54.2111 23.0652 54.2065 23.0167 54.1974 22.95C54.1883 22.8833 54.1717 22.8106 54.1474 22.7318C54.1262 22.65 54.0944 22.5667 54.052 22.4818C54.0095 22.3939 53.955 22.3152 53.8883 22.2455C53.8217 22.1758 53.7398 22.1182 53.6429 22.0727C53.5489 22.0273 53.4368 22.0045 53.3065 22.0045C53.2005 22.0045 53.1005 22.0212 53.0065 22.0545C52.9156 22.0848 52.8292 22.1561 52.7474 22.2682C52.6686 22.3803 52.5959 22.5424 52.5292 22.7545C52.4626 22.9667 52.4005 23.2515 52.3429 23.6091C52.4671 23.6758 52.5898 23.7394 52.7111 23.8C52.8353 23.8606 52.9535 23.9136 53.0656 23.9591C53.1777 24.0045 53.2823 24.0409 53.3792 24.0682C53.4762 24.0924 53.5611 24.1045 53.6338 24.1045ZM60.912 24.0727V25.0682H60.1847C59.918 25.0682 59.6787 25.0318 59.4665 24.9591C59.2544 24.8833 59.0802 24.7727 58.9438 24.6273C58.7802 24.7697 58.5802 24.8788 58.3438 24.9545C58.1105 25.0303 57.8453 25.0682 57.5483 25.0682H55.9074V24.0727H57.5483C57.7483 24.0727 57.9074 24.053 58.0256 24.0136C58.1468 23.9742 58.2377 23.9258 58.2983 23.8682C58.359 23.8076 58.3983 23.7424 58.4165 23.6727C58.4347 23.6 58.4438 23.5303 58.4438 23.4636V21.9227H59.4347V23.4318C59.4347 23.5348 59.4499 23.6227 59.4802 23.6955C59.5135 23.7652 59.5544 23.8242 59.6029 23.8727C59.6514 23.9182 59.7044 23.9545 59.762 23.9818C59.8196 24.0091 59.8756 24.0303 59.9302 24.0455C59.9877 24.0576 60.0393 24.0652 60.0847 24.0682C60.1302 24.0712 60.1635 24.0727 60.1847 24.0727H60.912ZM58.9256 27.5L58.2074 26.7727L58.9165 26.0364L59.6529 26.7727L58.9256 27.5ZM57.1938 27.4909L56.4756 26.7636L57.1847 26.0273L57.9211 26.7636L57.1938 27.4909ZM64.0907 21.2818C64.0968 21.3 64.1089 21.35 64.1271 21.4318C64.1453 21.5106 64.1665 21.6091 64.1907 21.7273C64.218 21.8455 64.2438 21.9758 64.268 22.1182C64.2953 22.2606 64.3195 22.4045 64.3407 22.55C64.365 22.6924 64.3847 22.8318 64.3998 22.9682C64.415 23.1015 64.4226 23.2182 64.4226 23.3182C64.4226 23.6182 64.3726 23.8788 64.2726 24.1C64.1726 24.3212 64.0423 24.503 63.8817 24.6455C63.7241 24.7879 63.5453 24.8939 63.3453 24.9636C63.1453 25.0333 62.9453 25.0682 62.7453 25.0682H60.7226V24.0727H62.7771C62.8165 24.0727 62.8741 24.0667 62.9498 24.0545C63.0286 24.0424 63.1059 24.0121 63.1817 23.9636C63.2574 23.9121 63.3226 23.8364 63.3771 23.7364C63.4347 23.6364 63.4635 23.497 63.4635 23.3182C63.4635 23.2515 63.4574 23.1682 63.4453 23.0682C63.4332 22.9682 63.418 22.8606 63.3998 22.7455C63.3817 22.6303 63.3604 22.5121 63.3362 22.3909C63.312 22.2697 63.2877 22.1561 63.2635 22.05C63.2423 21.9439 63.2211 21.8485 63.1998 21.7636C63.1786 21.6788 63.162 21.6136 63.1498 21.5682L64.0907 21.2818ZM63.9953 20.3318L63.2771 19.6045L63.9862 18.8682L64.7226 19.6045L63.9953 20.3318ZM62.168 20.3227L61.4498 19.5955L62.1544 18.8591L62.8907 19.5955L62.168 20.3227Z" fill="black"/>
</g>
<defs>
<filter id="filter0_d_16_773" x="50.5538" y="10.6836" width="138.114" height="54.6036" filterUnits="userSpaceOnUse" color-interpolation-filters="sRGB">
<feFlood flood-opacity="0" result="BackgroundImageFix"/>
<feColorMatrix in="SourceAlpha" type="matrix" values="0 0 0 0 0 0 0 0 0 0 0 0 0 0 0 0 0 0 127 0" result="hardAlpha"/>
<feOffset/>
<feGaussianBlur stdDeviation="5"/>
<feComposite in2="hardAlpha" operator="out"/>
<feColorMatrix type="matrix" values="0 0 0 0 0 0 0 0 0 0 0 0 0 0 0 0 0 0 0.74 0"/>
<feBlend mode="normal" in2="BackgroundImageFix" result="effect1_dropShadow_16_773"/>
<feBlend mode="normal" in="SourceGraphic" in2="effect1_dropShadow_16_773" result="shape"/>
</filter>
<filter id="filter1_d_16_773" x="39.6793" y="8.85909" width="35.0433" height="29.1409" filterUnits="userSpaceOnUse" color-interpolation-filters="sRGB">
<feFlood flood-opacity="0" result="BackgroundImageFix"/>
<feColorMatrix in="SourceAlpha" type="matrix" values="0 0 0 0 0 0 0 0 0 0 0 0 0 0 0 0 0 0 127 0" result="hardAlpha"/>
<feOffset/>
<feGaussianBlur stdDeviation="5"/>
<feComposite in2="hardAlpha" operator="out"/>
<feColorMatrix type="matrix" values="0 0 0 0 0 0 0 0 0 0 0 0 0 0 0 0 0 0 0.74 0"/>
<feBlend mode="normal" in2="BackgroundImageFix" result="effect1_dropShadow_16_773"/>
<feBlend mode="normal" in="SourceGraphic" in2="effect1_dropShadow_16_773" result="shape"/>
</filter>
</defs>
</svg>
