<svg width="50" height="50" viewBox="0 0 50 50" fill="none" xmlns="http://www.w3.org/2000/svg">
<rect width="50" height="50" rx="10" fill="black"/>
<path d="M15.4 25C15.4 26.7673 13.9673 28.2 12.2 28.2C10.4327 28.2 9 26.7673 9 25C9 23.2327 10.4327 21.8 12.2 21.8C13.9673 21.8 15.4 23.2327 15.4 25Z" fill="white"/>
<path d="M28.2 25C28.2 26.7673 26.7673 28.2 25 28.2C23.2327 28.2 21.8 26.7673 21.8 25C21.8 23.2327 23.2327 21.8 25 21.8C26.7673 21.8 28.2 23.2327 28.2 25Z" fill="white"/>
<path d="M41 25C41 26.7673 39.5673 28.2 37.8 28.2C36.0327 28.2 34.6 26.7673 34.6 25C34.6 23.2327 36.0327 21.8 37.8 21.8C39.5673 21.8 41 23.2327 41 25Z" fill="white"/>
<path d="M15.4 12.2C15.4 13.9673 13.9673 15.4 12.2 15.4C10.4327 15.4 9 13.9673 9 12.2C9 10.4327 10.4327 9 12.2 9C13.9673 9 15.4 10.4327 15.4 12.2Z" fill="white"/>
<path d="M28.2 12.2C28.2 13.9673 26.7673 15.4 25 15.4C23.2327 15.4 21.8 13.9673 21.8 12.2C21.8 10.4327 23.2327 9 25 9C26.7673 9 28.2 10.4327 28.2 12.2Z" fill="white"/>
<path d="M41 12.2C41 13.9673 39.5673 15.4 37.8 15.4C36.0327 15.4 34.6 13.9673 34.6 12.2C34.6 10.4327 36.0327 9 37.8 9C39.5673 9 41 10.4327 41 12.2Z" fill="white"/>
<path d="M15.4 37.8C15.4 39.5673 13.9673 41 12.2 41C10.4327 41 9 39.5673 9 37.8C9 36.0327 10.4327 34.6 12.2 34.6C13.9673 34.6 15.4 36.0327 15.4 37.8Z" fill="white"/>
<path d="M28.2 37.8C28.2 39.5673 26.7673 41 25 41C23.2327 41 21.8 39.5673 21.8 37.8C21.8 36.0327 23.2327 34.6 25 34.6C26.7673 34.6 28.2 36.0327 28.2 37.8Z" fill="white"/>
<path d="M41 37.8C41 39.5673 39.5673 41 37.8 41C36.0327 41 34.6 39.5673 34.6 37.8C34.6 36.0327 36.0327 34.6 37.8 34.6C39.5673 34.6 41 36.0327 41 37.8Z" fill="white"/>
</svg>
