<svg width="37" height="38" viewBox="0 0 37 38" fill="none" xmlns="http://www.w3.org/2000/svg">
<g filter="url(#filter0_d_11_769)">
<path fill-rule="evenodd" clip-rule="evenodd" d="M17.9912 8.00707C18.1811 7.99764 18.3714 7.99764 18.5614 8.00707C19.2948 8.04348 19.9699 8.25657 20.7226 8.60585C21.4553 8.94588 22.3067 9.43746 23.3839 10.0594L23.4449 10.0946C24.5221 10.7165 25.3735 11.2081 26.0344 11.6726C26.7132 12.1498 27.2353 12.628 27.6335 13.2449C27.7367 13.4047 27.8318 13.5695 27.9186 13.7387C28.2538 14.392 28.4068 15.0833 28.4807 15.9097C28.5526 16.7143 28.5526 17.6974 28.5526 18.9412V19.0117C28.5526 20.2555 28.5526 21.2387 28.4807 22.0433C28.4068 22.8697 28.2538 23.561 27.9186 24.2143C27.8318 24.3835 27.7367 24.5483 27.6335 24.7081C27.1482 25.4599 26.4769 26.0077 25.5637 26.5963C24.9843 26.9696 24.2782 27.3773 23.4294 27.8674L23.3839 27.8936C22.3068 28.5155 21.4553 29.0071 20.7226 29.3471C19.9699 29.6964 19.2948 29.9095 18.5614 29.9459C18.3714 29.9554 18.1811 29.9554 17.9912 29.9459C17.2578 29.9095 16.5826 29.6964 15.83 29.3471C15.0972 29.0071 14.2458 28.5155 13.1686 27.8936L13.1238 27.8678C12.2829 27.3823 11.5821 26.9776 11.0061 26.6073C10.084 26.0146 9.40731 25.4645 8.91904 24.7081C8.81589 24.5483 8.72073 24.3835 8.63392 24.2143C8.29877 23.561 8.14573 22.8697 8.07188 22.0433C7.99999 21.2387 7.99999 20.2555 8 19.0117V18.9413C7.99999 17.6975 7.99999 16.7143 8.07188 15.9097C8.14573 15.0833 8.29877 14.392 8.63392 13.7387C8.72073 13.5695 8.81589 13.4047 8.91904 13.2449C9.31726 12.628 9.83938 12.1498 10.5182 11.6726C11.179 11.2081 12.0305 10.7165 13.1076 10.0946L13.1686 10.0594C14.2458 9.43746 15.0972 8.94588 15.83 8.60585C16.5826 8.25657 17.2578 8.04348 17.9912 8.00707ZM24.8847 25.2483C24.2399 23.9044 22.8665 22.9765 21.2763 22.9765H15.2763C13.6861 22.9765 12.3126 23.9044 11.6678 25.2483C11.7163 25.2803 11.766 25.3127 11.8172 25.3456C12.3598 25.6943 13.03 26.0816 13.8881 26.577C15.0025 27.2204 15.7965 27.6779 16.4614 27.9865C17.1133 28.289 17.5927 28.4243 18.0655 28.4478C18.2059 28.4547 18.3466 28.4547 18.487 28.4478C18.9599 28.4243 19.4393 28.289 20.0912 27.9865C20.7561 27.6779 21.55 27.2204 22.6644 26.577C23.531 26.0766 24.206 25.6867 24.7511 25.3354C24.7967 25.306 24.8413 25.277 24.8847 25.2483ZM18.2762 11.2265C15.6529 11.2265 13.5262 13.3531 13.5262 15.9765C13.5262 18.5999 15.6529 20.7265 18.2762 20.7265C20.8996 20.7265 23.0262 18.5999 23.0262 15.9765C23.0262 13.3531 20.8996 11.2265 18.2762 11.2265Z" fill="white"/>
</g>
<defs>
<filter id="filter0_d_11_769" x="0.0999999" y="0.0999999" width="36.3526" height="37.753" filterUnits="userSpaceOnUse" color-interpolation-filters="sRGB">
<feFlood flood-opacity="0" result="BackgroundImageFix"/>
<feColorMatrix in="SourceAlpha" type="matrix" values="0 0 0 0 0 0 0 0 0 0 0 0 0 0 0 0 0 0 127 0" result="hardAlpha"/>
<feOffset/>
<feGaussianBlur stdDeviation="3.95"/>
<feColorMatrix type="matrix" values="0 0 0 0 1 0 0 0 0 1 0 0 0 0 1 0 0 0 0.58 0"/>
<feBlend mode="normal" in2="BackgroundImageFix" result="effect1_dropShadow_11_769"/>
<feBlend mode="normal" in="SourceGraphic" in2="effect1_dropShadow_11_769" result="shape"/>
</filter>
</defs>
</svg>
